<?xml version="1.0" standalone="no"?>
<!DOCTYPE svg PUBLIC "-//W3C//DTD SVG 20010904//EN"
 "http://www.w3.org/TR/2001/REC-SVG-20010904/DTD/svg10.dtd">
<svg version="1.0" xmlns="http://www.w3.org/2000/svg"
 width="302.000000pt" height="302.000000pt" viewBox="0 0 302.000000 302.000000"
 preserveAspectRatio="xMidYMid meet">
<metadata>
Created by potrace 1.14, written by Peter Selinger 2001-2017
</metadata>
<g transform="translate(0.000000,302.000000) scale(0.100000,-0.100000)"
fill="#000000" stroke="none">
<path d="M2276 2914 c-110 -14 -201 -26 -204 -28 -2 -2 44 -87 101 -187 58
-101 102 -186 100 -189 -12 -13 -79 86 -135 198 -82 166 -139 212 -270 220
-124 8 -209 -30 -438 -191 l-110 -77 0 -415 c0 -228 2 -415 5 -415 3 0 60 27
126 61 170 85 312 131 420 137 83 4 88 3 165 -34 l79 -39 150 0 c143 1 154 2
245 33 101 35 199 89 265 146 l40 34 -128 386 -129 386 -41 -1 c-23 -1 -132
-12 -241 -25z"/>
<path d="M1192 2698 c-9 -9 -12 -95 -12 -325 0 -291 -1 -313 -17 -314 -83 -4
-203 -32 -297 -70 -244 -99 -453 -310 -547 -552 -152 -395 -38 -845 281 -1107
30 -25 57 -47 60 -50 36 -38 255 -139 335 -156 213 -43 400 -33 574 32 145 54
253 124 367 239 332 334 372 886 91 1260 -87 117 -168 190 -295 268 l-72 45
-43 -15 c-23 -8 -48 -19 -54 -25 -7 -6 -13 -7 -13 -3 0 4 -7 2 -15 -5 -13 -11
-3 -19 72 -55 261 -125 453 -381 490 -653 83 -611 -451 -1112 -1051 -987 -242
50 -479 235 -594 462 -29 57 -72 186 -80 242 -15 98 -6 292 15 367 103 357
381 600 741 649 l53 7 -3 -88 -3 -88 -66 -12 c-431 -79 -684 -534 -523 -941
86 -218 278 -380 507 -427 88 -18 239 -14 322 9 456 124 660 665 399 1055 -57
84 -91 121 -168 179 -76 58 -189 106 -285 123 l-71 12 0 88 c0 48 4 88 8 88
10 0 10 96 0 106 -5 4 -8 147 -8 319 0 228 -3 314 -12 323 -7 7 -26 12 -43 12
-17 0 -36 -5 -43 -12z m-12 -1121 l0 -84 -54 -12 c-125 -28 -242 -137 -286
-267 -21 -60 -29 -159 -17 -209 4 -16 9 -39 11 -50 8 -42 61 -128 105 -172
206 -203 552 -139 673 124 57 123 46 285 -27 395 -59 88 -170 167 -262 184
l-33 6 0 84 c0 96 0 96 95 70 257 -69 438 -308 436 -574 -2 -251 -178 -484
-422 -559 -58 -18 -225 -24 -292 -11 -173 35 -344 179 -415 350 -94 226 -47
464 129 640 43 43 99 88 130 104 69 35 155 63 197 63 l32 1 0 -83z m0 -361 c0
-136 3 -167 16 -180 18 -18 47 -20 75 -6 18 10 19 23 19 181 l0 169 24 -4 c63
-11 154 -84 188 -150 84 -161 23 -348 -140 -427 -72 -36 -187 -34 -264 4 -188
92 -230 344 -81 493 34 34 123 84 151 84 9 0 12 -39 12 -164z"/>
</g>
</svg>
